<?xml version="1.0" encoding="UTF-8"?>
<svg id="Capa_1" xmlns="http://www.w3.org/2000/svg" viewBox="0 0 141.73 141.73">
  <defs>
    <style>
      .cls-1 {
        fill: #fff;
      }

      .cls-2 {
        fill: #c00909;
      }
    </style>
  </defs>
  <rect class="cls-1" width="141.73" height="141.73"/>
  <g>
    <path class="cls-2" d="M129.12,73.47c-.33-.63-.59-1.12-.37-1.81.18-.56,0-1.13-.02-1.7-.08-1.95-1.46-3.41-1.81-5.36-.49-2.72-2.16-5.21-3.22-7.84-.5-1.26-1.94-2.07-2.06-3.66-.03-.41-.49-.82-.83-1.17-1.24-1.27-1.96-2.91-3.1-4.26-1.67-1.97-2.96-4.34-5.91-4.66-.61-.07-.92-.28-1-1.03-.2-1.78-1.07-3.15-2.94-3.64-.27-.07-.46-.25-.61-.47-1.06-1.55-2.53-2.1-4.35-1.78-.39.07-.66.11-.8-.37-.76-2.54-2.76-3.38-5.13-3.63-.5-.05-.81-.24-1.12-.56-1.11-1.12-2.51-1.65-4.03-1.78-.86-.08-1.54-.37-2.31-.71-1.35-.6-2.84-1.09-4.34-.88-1.19.17-1.95-.31-2.55-1.11-1.91-2.54-4.53-2.83-6.89-.67-.28.26-.5.45-.91.36-1.65-.36-3.31.04-4.94.09-2.86.08-5.72.6-8.52,1.27-.57.14-.95.06-1.43-.28-1.47-1.02-3.04-1.06-4.59-.16-.43.25-.86.42-1.34.53-1.45.34-2.52,1.2-3.31,2.44-1,1.57-1.08,3.29-.7,5.1-11.89-4.07-22.91,5.84-19.95,16.95,1.26,3.52,2.39,7.12,5.16,9.99-1.6.44-3.05,1.03-4.15,2.23-.52.56-.73.08-.98-.25-.94-1.27-2.17-2.15-3.62-2.74-1-.09-1.95-.45-2.99-.29-3.95.6-6.42,3.44-6.47,7.54-.04,3.07-.04,6.14-.07,9.22.02,3.88.02,7.75.07,11.63,0,.61-.21.84-.78.97-.9.2-1.78.49-2.67.74-2.93,2.04-4.34,4.7-3.44,8.33.33,1.31,1.23,2.3,1.81,3.47,1.18,2.06,2.87,3.7,4.4,5.48,2.87,3.33,6.41,2.59,9.33.58,1.31-.9,2.54-1.89,3.62-3.07.78-.86,1.54-.93,2.52-.19,1.78,1.35,3.37,2.93,5.31,4.11,4.27,2.6,9.84,2.05,13.65-.74.53-.39,1.12-.69,1.69-1.03,1.36-.82,2.49-.53,3.64.54,3.19,2.97,6.48,1.75,8.15-1.6.18-.36.35-.7.64-.99,1.8-1.8,2.39-4.04,2.38-6.5,0-1.27,0-2.53,0-4.16.9.86.86,1.75,1.16,2.43,1.13,2.58,2.38,5.1,3.79,7.53.44.76.54,1.43.44,2.23-.35,2.7-.24,5.35,1.71,7.47,1.03,1.12,1.55,2.51,2.42,3.7,2.3,3.14,6.8,4.41,10.46,2.87,4.18-1.76,6.61-5.01,8.41-8.94.4-.88.86-1.75,1.41-2.53.52-.74,1.21-.95,2.19-.65,2.33.71,4.34,2.2,6.84,2.57,5.4.8,9.1-.97,11.95-6.1.98-1.77,2.36-3.29,3.36-5.07.87-1.55,1.42-3.13,1.2-4.9-.13-1.02.58-1.62.99-2.36.67-1.18,1.5-2.26,1.93-3.59.58-1.8.18-3.54-.12-5.29-.12-.72-.11-1.24.59-1.68,1.23-.78,1.68-2.23,2.66-3.23.23-.37.5-.72.69-1.12.91-1.95.8-3.93-.16-5.79ZM28.01,90.23c-.08,6.42-4.69,11.33-10.72,11.52-2.59.08-4.71-1.92-4.59-4.34.01-.21-.02-.45.26-.53.63-2,1.99-3.05,4.09-3.12,1.77-.06,2.43-1.34,3-2.72,0-7.24,0-14.48,0-21.72,0-.52.07-1.04.1-1.57.49-2.07,1.92-3.29,3.87-3.28,2.04.01,3.43,1.27,3.91,3.56.03,2.86.07,5.72.08,8.58.01,4.54.04,9.07-.02,13.61ZM124.03,64.57c.17.67.21,1.39-.62,1.54-.82.15-.96-.5-.92-1.17-.17-.06-.33-.12-.5-.18-.12.56.18,1.19-.26,1.7-.05.44-.49.58-.82,1.07,1.2-.06,2.32-.39,3.31.3,1,.69,1.66,1.54,1.46,2.84.12.73-.05,1.37-.57,1.91-1.18,1.32-2.55,1.75-4.18.84-1.07-.6-1.61-1.5-1.56-2.74-.21-.95.24-1.71.82-2.34.63-.69-.09-.53-.35-.67-1.36,0-1.75-1.09-2.29-2.02,0-.5-.26-1.04.27-1.45.65-.51,1.38-.3,1.63.52.1.32-.03.71.47,1.07.38-1.3.22-3.12,2.25-2.98,1.01.07,1.64.75,1.85,1.77ZM121.8,60.1c.09.48.09.95-.28,1.33-.06.58-.61.83-.93,1.2-.52.61-1.21.45-1.62-.26-.46-.79-.86-1.62-1.27-2.44-.18-.36-.36-.49-.61-.07-.01.19-.02.38-.03.58.31.41.58.85.93,1.23.29.31.49.63.32,1.04-.19.46-.53.66-1.04.49-1.37-.67-1.91-1.79-1.8-3.28.19-1.92,1.44-3.09,3.25-3.05,1.8.04,3.02,1.32,3.08,3.23ZM115.37,50.87c.49-.33,1.03-.28,1.41.22.43.57.23,1.1-.28,1.5-.62.48-1.3.91-1.93,1.38-.38.28-.68.63-.33,1.11.32.44.76.4,1.17.13.63-.41,1.23-.85,1.85-1.27.58-.39,1.18-.48,1.61.17.43.66.12,1.18-.48,1.55-1.14.71-2.05,1.85-3.31,1.85-1.47-.04-2.34-.61-2.83-1.73-.49-1.13-.31-2.22.56-3.04.76-.72,1.68-1.28,2.55-1.86ZM106.55,62.01c2.17.74,3.1,2.31,4.14,4.17,1.24,2.21,1.41,4.86,3.1,6.81.15.18.27.36.16.59-.16.34-.44.21-.68.15-2.19-.52-4.37-.5-6.55.03-.4.1-.71.11-.61-.47.68-3.71.05-7.47.44-11.28ZM107.91,47.98c.46-1.27,1.38-2.04,2.74-2.16,1.47-.13,2.54.54,3.22,1.84.06.12.1.25.18.35q1.13,1.59-.39,2.97c-.71.64-1.43,1.26-2.15,1.88-.47.45-.92.93-1.42,1.35-.44.37-.93.51-1.38-.02-.65-.59-.36-1.12.16-1.55.58-.47.45-.73-.05-1.19-1.03-.93-1.4-2.13-.91-3.48ZM99.56,44.24q1.95.47,2.43-1.49c.24-.98.51-1.96.77-2.94.19-.71.63-1.08,1.37-.87.69.19.81.75.66,1.38-.14.59-.31,1.17-.51,1.93.69-.39,1.22-.68,1.74-.99.63-.37,1.23-.34,1.6.31.35.61.08,1.06-.55,1.37-.3.15-.5.49-.88.52-1.28.87-2.49,1.85-4.01,2.31-1.2.79-2.45.79-3.4.05-.41-.32-.55-.67-.32-1.14.24-.48.63-.55,1.12-.43ZM96.43,35.05c1.15-.25,2.6.39,2.72,1.29.2,1.42-.99.83-1.71,1.06.79.84.93,1.77.34,2.74-.51.85-1.35,1.06-2.27,1.06-.93,0-1.47-.61-1.84-1.35-.24-.46-.14-.95.34-1.28.42-.28.82-.24,1.21.09.25.2.39.62.95.42-.23-.74-.93-1.22-1.02-2.03-.12-1.07.19-1.76,1.29-2ZM90.57,32.74c1.68-.45,3.45.49,3.88,2.07.09.33.18.67.21,1.02.09,1.06-.73,1.73-1.76,1.41-.91-.29-1.79-.64-2.9-1.04.42,1.11,1.13,1.24,1.92,1.25.52,0,.97.12,1.03.76.07.67-.36.68-.87.8-1.6.4-3.3-.57-3.82-2.27-.51-1.69.55-3.52,2.31-3.99ZM77.53,31.5c.11-.83.21-1.66.34-2.49.1-.64.34-1.26,1.14-1.2.77.06,1.03.63.91,1.33-.12.71.11.82.81.89,1.5.13,2.71.78,2.95,2.48.04.3.19.51.46.54.38.04.33-.34.41-.56.21-.56.17-1.51.89-1.44.95.1,2.04.02,2.85.7.6.5.28,1.42-.53,1.6-.38.09-.78.08-1.18.11-.54.74-.55,1.66-.77,2.5-.18.7-.4,1.33-1.25,1.23-.78-.08-.94-.68-.88-1.37.02-.2.03-.44-.36-.68-1.47,2.32-3.6,1.13-5.55.88-.83-.11-.8-.91-.51-1.6.04-.71.07-1.41.11-2.12-.11-.3-.25-.6.15-.8ZM68.55,29.8c.37.07.69-.1,1.02-.08,1.52.09,3.02.05,4.55-.13,1.24-.15,2.22.88,2.43,2.14.12.73.08,1.48.12,2.22.02.3.08.61.06.91-.04.6-.39,1-.99,1.02-.61.02-1-.4-1.05-.97-.07-.86-.03-1.74-.04-2.61-.3-.73-.78-.93-1.47-.47-.03.65-.03,1.3-.08,1.95-.07.83.49,2.11-.9,2.18-1.48.07-1.02-1.31-1.16-2.17-.11-.67.11-1.41-.35-2.02-.32.02-.65.03-.97.05-.39.98-.09,1.99-.11,2.99-.01.7-.23,1.24-.99,1.29-.78.05-1.08-.46-1.09-1.17-.02-.87-.01-1.75-.02-2.62-.03-.48-.09-.96-.09-1.44,0-.74.35-1.19,1.13-1.06ZM56.7,30.34c.18-.34.49-.5.87-.45.47.05.65.35.67.81.02.42-.21.87.17,1.24,1.26.62.89,2.01,1.42,2.98.07,0,.13.01.2.03.03-.44.04-.88.08-1.31.15-1.73,1.4-2.91,3.13-2.98.47-.02.92.1,1.39-.21.77-.51,1.29-.05,1.47.68.34,1.37.58,2.76.85,4.14.08.41.03.97-.38,1.02-1.2.15-2.24.93-3.51.83-1.06-.09-1.79-.67-2.45-1.4-.17.01-.34.03-.51.04.07.44.4.83.26,1.32.06.83-.47,1.08-1.13.99-.86-.11-.84-.89-.95-1.53-.34-.93-.74-1.85-1-2.81-.16-.58-.47-1.3.38-1.7-.09-.43-.56-.35-.79-.6-.3-.33-.36-.69-.16-1.07ZM54.19,31.17c.54-.33,1.14-.44,1.54.11.34.47.42,1.08-.21,1.49-.35.23-.66.48-.48.95.21.53.6.17.9.13.54-.08.82.22,1.05.62.18.32.03.72-.21.81-1.36.51-.6,1.35-.38,2.11.1.33.33.63.26,1,.13.61-.23.92-.74,1.03-.54.11-.94-.14-1.14-.66-.44-1.18-.88-2.37-1.31-3.56-.9-1.83-.65-3.22.72-4.04ZM53.59,52.17c1.08-.8,2.03-1.88,2.27-3.17.33-1.8,1.71-2.11,2.99-2.45,1.34-.36,2.77-.51,4.16-.52,1.82,0,3.42-.69,5.08-1.27,2.51-.89,5.05-.97,7.61-.15,3.24,1.04,6.52,1.41,9.79.16.9-.35,1.24.28,1.56.8.35.56,1.35,1.07.98,1.66-.4.64-1.28,0-1.95-.12-1.79-.32-3.41.16-4.91,1.08-.44.27-.72.49-1.25.11-1.93-1.36-4.06-1.65-6.26-.8-.8.31-1.51.29-2.28.04-4.84-1.59-9.31-.56-13.45,2.12-1.72,1.12-3.07,2.69-4.26,4.36-1.06-.67-.98-1.19-.07-1.86ZM79.7,71.57c-.05,2.82-3.19,4.3-5.67,2.8-.65-.39-1.08-.42-1.76-.12-7.77,3.47-16.33-1.09-17.97-9.68-.18-.93-.01-1.93,0-2.89.31-4.38,2.43-7.72,6.12-9.99,3.74-2.3,7.71-2.27,11.69-.58.55.23.97.3,1.42-.14,1.12-1.1,2.53-.91,3.78-.53,1.64.5,2.33,1.88,2.39,3.57.01,5.85.11,11.71,0,17.56ZM32.21,69.07c.53-2.69,2.72-3.98,5.27-3.09.95.33,1.84.86,2.8,1.11,2.89.75,5.07-.66,5.6-3.55-.1-2.14-1.5-3.16-3.32-3.8-1.74-.62-3.53-1.12-5.09-2.16-3.36-2.23-4.83-5.46-4.87-9.41.33-3.46,1.81-6.3,4.73-8.23,4.12-2.72,8.45-3.05,12.87-.72,1.53.81,2.27,2.15,2.16,3.91-.33,2.8-2.6,4.15-5.48,3.27-.75-.23-1.46-.61-2.27-.62-1.83-.03-3.22.67-3.98,2.41-.16,1.35.49,2.25,1.61,2.9,1.49.87,3.22,1.16,4.76,1.88,3.91,1.84,6.17,4.91,6.72,9.21.81,5.04-2.42,10.32-7.44,12.19-4.32,1.6-8.39.89-12.27-1.32-1.51-.86-2.1-2.34-1.79-4ZM49.34,99.53c-3.88,2.78-8.2,3.18-12.53,1.17-4.49-2.08-7.05-5.7-7.44-10.7-.11-1.43-.27-2.9.4-4.27,1.25-5.07,5.67-8.77,11.21-9.38,4.83-.53,10.13,2.29,12.26,6.68.5,1.02,1.09,2.07,1.22,3.25,1.05,5.49-.6,10-5.14,13.24ZM67.41,84.22c-3.09.44-3.81,1.27-3.81,4.38,0,2.91.01,5.81-.01,8.72-.02,2.54-1.6,4.18-3.94,4.16-2.29-.02-3.83-1.63-3.84-4.12-.03-5.64-.02-11.27-.02-16.91,0-.26.06-.52.1-.78.5-2.65,3.04-3.94,5.39-2.68.56.3.95.37,1.55.11,1.48-.63,3.08-.77,4.67-.68,1.87.12,3.08,1.31,3.41,3.25.21,2.51-1.09,4.2-3.49,4.55ZM96.32,99.34c-.13,9.13-9.48,15.14-17.8,11.51-2.01-.87-2.82-2.59-2.23-4.71.75-2.15,2.72-3.17,4.77-2.47,3.47,1.17,4.84.78,7.09-2-.02-1.07-.67-.38-.97-.3-3.54.99-6.88.52-10.06-1.27-5.04-2.84-7.52-9.11-5.79-14.63,2.13-7.33,10.22-11.16,17.2-8.12.55.24.93.39,1.52-.07,2.38-1.87,5.38-.79,6.16,2.15.05.3.13.6.13.9,0,6.34.06,12.68-.02,19.01ZM95.34,71.03c-.06-3.44,0-6.88-.03-10.32-.01-1.47-1.01-2.65-2.38-2.96-1.32-.3-2.78.42-3.43,1.68-.27.53-.3,1.09-.3,1.67,0,3.17.01,6.35,0,9.52-.01,2.61-1.6,4.35-3.93,4.36-2.31,0-3.94-1.75-3.94-4.36,0-5.46.03-10.93.05-16.39-.1-3.34,2.62-5.19,5.53-3.7.59.3.97.12,1.45-.07,6.74-2.65,14.41,2.21,14.79,9.36.02,3.88.11,7.76.03,11.63-.05,2.11-1.9,3.6-4.03,3.52-2.15-.08-3.78-1.7-3.82-3.95ZM118.25,91.9c-4.12.05-8.24.01-12.37.05-.35,0-.93-.33-1.03.41.41,0,.58.35.83.59,2.4,2.32,5.49,2.8,8.48,1.3,2.3-1.15,3.78-.73,5.06,1.42.71,1.77.16,3.44-1.45,4.39-6.4,3.76-15.09,1.64-18.81-4.75-1.77-3.04-2.08-6.39-1.01-9.8,1.11-4.54,5.3-8.31,10.01-9,5.43-.79,10.49,1.53,13.09,5.99.69,1.19,1.24,2.42,1.45,3.79.92,3.46-.65,5.56-4.25,5.6ZM126.94,76.67c-.15.48-.38.94-.99.88-.56-.05-.68-.48-.68-.96,0-.21.06-.44-.18-.59-.52.2-.35.75-.53,1.12-.54,1.09-1.83,1.53-2.91.95-1.07-.57-1.66-2.27-1.09-3.18.28-.44.68-.72,1.23-.55.54.16.77.56.68,1.12-.05.33-.27.68.21.96.44-.32.33-.77.48-1.13.42-1.03,1.36-1.56,2.28-1.26,1.1.36,1.82,1.61,1.5,2.64Z"/>
    <path class="cls-2" d="M83.48,84.28c-2.56.05-4.69,2.19-4.7,4.74-.01,2.66,2.08,4.77,4.75,4.79,2.66.01,4.76-2.09,4.75-4.77,0-2.63-2.2-4.8-4.8-4.76Z"/>
    <path class="cls-2" d="M42.04,84.22c-2.88.02-5.01,2.44-4.78,5.42.03.39.02.78.03,1.17,2.28,4.18,6.85,3.81,8.72,1.09.3-.43.5-.92.75-1.38.03-.31.06-.61.08-.92.22-3-1.92-5.39-4.81-5.38Z"/>
    <path class="cls-2" d="M109.51,82.62c-2.24.24-4.16,1.84-4.39,3.66,3.33-.02,6.66-.04,9.99-.05-.84-2.46-3.04-3.88-5.59-3.61Z"/>
    <path class="cls-2" d="M64.53,58.44c-1.83,1.11-2.43,2.81-2.36,4.84.47,2.04,1.57,3.51,3.7,4.01,1.82.43,3.38-.06,4.69-1.38.73-.74.99-1.72,1.3-2.67.27-4.52-4.22-6.68-7.33-4.79Z"/>
    <path class="cls-2" d="M80.74,34.45c.73-.05,1.05-.52,1.09-1.23-.09-.69-.48-1.15-1.18-1.15-.76,0-1.23.49-1.21,1.25.02.76.51,1.19,1.3,1.13Z"/>
    <path class="cls-2" d="M122.55,71.82c.75.06,1.15-.5,1.21-1.11.08-.73-.43-1.18-1.15-1.34-.75.08-1.23.51-1.29,1.23-.06.8.51,1.16,1.23,1.22Z"/>
    <path class="cls-2" d="M110.97,50.29c.61-.09,1.19-.4,1.2-1.1.01-.74-.35-1.37-1.23-1.36-.72,0-1.15.44-1.2,1.14-.05.78.42,1.19,1.23,1.32Z"/>
    <path class="cls-2" d="M63.28,35.04c.77.05,1.2-.39,1.31-1.14-.06-.79-.49-1.25-1.25-1.23-.68.01-1.14.43-1.15,1.16,0,.71.38,1.17,1.09,1.21Z"/>
    <path class="cls-2" d="M90.55,34.8c.78.27,1.48.51,2.28.79-.6-1.48-1.06-1.63-2.28-.79Z"/>
    <path class="cls-2" d="M119.75,60.84c.58-.5.5-1.04.24-1.57-.18-.37-.6-.74-.93-.57-.45.24-.1.65.1.98.22.37.39.76.59,1.17Z"/>
  </g>
</svg>