<?xml version="1.0" encoding="UTF-8"?>
<svg id="Capa_1" xmlns="http://www.w3.org/2000/svg" viewBox="0 0 137.5 112.1">
  <defs>
    <style>
      .cls-1 {
        fill: #c00909;
      }
    </style>
  </defs>
  <path class="cls-1" d="M136.6,55.6c-.37-.72-.68-1.28-.43-2.08.2-.64,0-1.29-.02-1.94-.09-2.24-1.67-3.9-2.07-6.14-.56-3.12-2.48-5.96-3.69-8.98-.58-1.44-2.23-2.37-2.36-4.19-.03-.47-.56-.94-.95-1.34-1.42-1.45-2.24-3.33-3.55-4.88-1.91-2.26-3.38-4.97-6.76-5.33-.7-.08-1.05-.33-1.15-1.18-.23-2.04-1.23-3.61-3.37-4.17-.31-.08-.53-.28-.7-.54-1.21-1.78-2.9-2.41-4.98-2.04-.44.08-.76.12-.92-.43-.87-2.91-3.16-3.87-5.88-4.15-.57-.06-.93-.28-1.29-.64-1.27-1.28-2.88-1.89-4.61-2.04-.98-.09-1.76-.43-2.64-.82-1.54-.68-3.26-1.25-4.97-1.01-1.36.19-2.23-.36-2.92-1.28-2.18-2.91-5.19-3.25-7.88-.77-.32.29-.58.51-1.04.41-1.88-.41-3.79.05-5.66.1-3.27.09-6.55.69-9.76,1.45-.66.16-1.09.07-1.64-.32-1.69-1.17-3.48-1.22-5.26-.19-.49.29-.99.48-1.53.61-1.66.39-2.89,1.37-3.79,2.79-1.14,1.8-1.24,3.76-.8,5.84-13.61-4.67-26.23,6.69-22.85,19.41,1.45,4.04,2.74,8.15,5.91,11.44-1.83.5-3.49,1.18-4.75,2.55-.59.65-.84.09-1.12-.29-1.07-1.46-2.48-2.47-4.15-3.14-1.14-.11-2.24-.51-3.43-.33-4.53.69-7.35,3.94-7.4,8.64-.04,3.52-.05,7.04-.07,10.55.02,4.44.03,8.88.08,13.32,0,.7-.23.97-.9,1.11-1.03.22-2.04.56-3.05.85-3.36,2.34-4.97,5.38-3.94,9.54.37,1.5,1.41,2.63,2.07,3.97,1.35,2.35,3.28,4.24,5.04,6.27,3.29,3.81,7.34,2.97,10.69.67,1.49-1.03,2.91-2.16,4.14-3.51.89-.99,1.76-1.07,2.88-.21,2.04,1.55,3.86,3.35,6.08,4.7,4.88,2.97,11.27,2.35,15.63-.85.61-.45,1.28-.79,1.93-1.18,1.56-.94,2.85-.61,4.17.62,3.65,3.41,7.42,2,9.33-1.84.2-.41.4-.8.73-1.13,2.06-2.06,2.74-4.63,2.73-7.45,0-1.45,0-2.9,0-4.77,1.03.98.99,2,1.33,2.79,1.29,2.96,2.73,5.84,4.33,8.62.5.87.62,1.63.5,2.55-.4,3.09-.27,6.12,1.96,8.56,1.18,1.28,1.77,2.87,2.77,4.24,2.63,3.59,7.79,5.05,11.98,3.28,4.79-2.01,7.57-5.74,9.63-10.24.46-1,.98-2,1.61-2.9.59-.84,1.39-1.09,2.51-.74,2.67.82,4.98,2.52,7.83,2.94,6.18.91,10.43-1.12,13.68-6.99,1.12-2.02,2.7-3.77,3.84-5.81,1-1.78,1.63-3.59,1.38-5.61-.15-1.17.66-1.85,1.13-2.7.76-1.36,1.71-2.59,2.2-4.12.66-2.07.2-4.06-.14-6.06-.14-.83-.12-1.42.68-1.92,1.41-.89,1.92-2.56,3.05-3.7.27-.42.58-.83.79-1.28,1.04-2.23.92-4.5-.18-6.63ZM20.82,74.79c-.09,7.35-5.37,12.98-12.27,13.2-2.97.09-5.39-2.2-5.26-4.97.01-.25-.02-.51.3-.6.73-2.29,2.28-3.49,4.69-3.57,2.03-.07,2.78-1.54,3.44-3.11,0-8.29,0-16.58,0-24.87,0-.6.08-1.2.12-1.79.56-2.37,2.2-3.77,4.43-3.76,2.34.01,3.93,1.46,4.48,4.08.03,3.27.08,6.55.09,9.82.01,5.19.04,10.39-.02,15.58ZM130.78,45.41c.19.77.24,1.59-.71,1.77-.94.17-1.1-.57-1.05-1.34-.19-.07-.38-.14-.57-.21-.14.64.2,1.36-.3,1.95-.06.5-.56.66-.94,1.22,1.37-.07,2.65-.44,3.79.35,1.15.8,1.9,1.76,1.67,3.25.14.83-.05,1.57-.65,2.18-1.36,1.51-2.92,2.01-4.78.96-1.23-.68-1.85-1.72-1.78-3.14-.24-1.09.28-1.95.94-2.68.73-.79-.11-.6-.4-.77-1.56,0-2.01-1.24-2.62-2.31,0-.57-.3-1.19.31-1.66.75-.59,1.58-.34,1.86.6.11.37-.04.82.54,1.23.43-1.49.25-3.58,2.57-3.41,1.16.08,1.88.86,2.12,2.02ZM128.22,40.29c.11.55.1,1.08-.32,1.52-.07.67-.7.95-1.06,1.37-.59.7-1.39.51-1.86-.3-.53-.91-.98-1.85-1.45-2.79-.21-.41-.41-.56-.7-.08-.01.22-.02.44-.04.66.35.47.67.97,1.07,1.41.33.36.56.72.37,1.19-.21.53-.61.76-1.19.56-1.57-.77-2.19-2.05-2.06-3.75.21-2.2,1.65-3.54,3.73-3.5,2.06.04,3.46,1.51,3.52,3.7ZM120.85,29.72c.57-.38,1.18-.32,1.62.25.49.65.27,1.26-.32,1.71-.72.56-1.48,1.04-2.22,1.58-.43.32-.77.72-.38,1.27.37.5.87.46,1.34.15.72-.47,1.41-.98,2.12-1.45.66-.44,1.35-.55,1.84.2.5.75.14,1.35-.54,1.77-1.3.81-2.35,2.12-3.79,2.12-1.68-.04-2.68-.7-3.24-1.98-.56-1.29-.35-2.54.64-3.48.87-.82,1.92-1.46,2.92-2.13ZM110.76,42.47c2.48.84,3.55,2.64,4.74,4.77,1.42,2.53,1.61,5.56,3.55,7.8.17.2.31.41.18.68-.18.39-.5.24-.78.17-2.5-.6-5-.57-7.5.04-.45.11-.82.12-.7-.54.77-4.25.06-8.56.51-12.92ZM112.32,26.41c.52-1.46,1.58-2.34,3.13-2.48,1.69-.15,2.91.61,3.69,2.11.07.13.12.28.2.41q1.3,1.82-.45,3.4c-.81.73-1.64,1.44-2.46,2.16-.54.52-1.05,1.07-1.62,1.55-.5.42-1.06.58-1.58-.02-.74-.67-.42-1.29.19-1.77.67-.54.52-.83-.06-1.36-1.17-1.07-1.6-2.44-1.04-3.99ZM102.75,22.13q2.24.54,2.78-1.71c.28-1.13.58-2.25.88-3.37.21-.81.73-1.23,1.56-1,.79.22.92.86.76,1.58-.16.67-.35,1.34-.58,2.21.79-.45,1.4-.78,1.99-1.13.72-.43,1.4-.39,1.83.35.4.7.09,1.22-.63,1.57-.34.17-.58.56-1.01.6-1.47.99-2.85,2.12-4.59,2.64-1.37.91-2.81.91-3.89.05-.46-.37-.63-.77-.36-1.31.27-.55.72-.63,1.28-.5ZM99.17,11.6c1.31-.28,2.97.45,3.12,1.48.22,1.62-1.14.95-1.96,1.21.91.96,1.06,2.02.39,3.14-.58.98-1.54,1.21-2.59,1.21-1.07,0-1.68-.7-2.11-1.54-.27-.53-.16-1.09.39-1.47.48-.33.93-.27,1.38.1.28.23.45.71,1.08.48-.26-.84-1.07-1.39-1.17-2.32-.14-1.23.22-2.02,1.48-2.29ZM92.46,8.95c1.92-.51,3.95.57,4.45,2.37.1.38.2.77.24,1.17.1,1.21-.84,1.98-2.01,1.61-1.04-.33-2.05-.74-3.32-1.2.48,1.27,1.3,1.42,2.2,1.43.59,0,1.11.13,1.18.87.08.77-.42.77-1,.92-1.83.46-3.78-.65-4.37-2.6-.58-1.93.63-4.04,2.64-4.57ZM77.53,7.54c.13-.95.24-1.9.39-2.85.12-.74.39-1.44,1.3-1.38.89.07,1.18.72,1.05,1.52-.14.81.13.94.92,1.02,1.71.15,3.1.89,3.38,2.84.05.35.22.59.53.62.43.04.38-.39.47-.65.24-.64.19-1.73,1.01-1.65,1.09.11,2.34.03,3.26.8.69.58.32,1.62-.6,1.83-.44.1-.9.09-1.35.13-.62.85-.63,1.9-.88,2.86-.21.8-.46,1.52-1.43,1.41-.89-.1-1.08-.77-1.01-1.57.02-.23.03-.5-.41-.78-1.68,2.66-4.12,1.3-6.35,1.01-.95-.12-.92-1.05-.58-1.83.04-.81.08-1.62.12-2.42-.13-.34-.28-.68.17-.91ZM67.24,5.59c.43.07.79-.12,1.17-.1,1.74.1,3.46.06,5.21-.15,1.42-.17,2.54,1.01,2.79,2.45.14.83.1,1.7.13,2.54.03.35.09.69.07,1.04-.05.69-.44,1.14-1.13,1.16-.7.02-1.14-.46-1.2-1.11-.08-.99-.04-1.99-.04-2.99-.35-.84-.89-1.07-1.68-.54-.03.75-.03,1.49-.09,2.23-.08.95.56,2.42-1.04,2.5-1.7.08-1.16-1.5-1.33-2.48-.13-.77.13-1.61-.4-2.31-.37.02-.74.04-1.12.06-.44,1.12-.1,2.28-.13,3.42-.02.8-.27,1.42-1.13,1.48-.89.06-1.23-.53-1.25-1.34-.02-1-.02-2-.02-3-.04-.55-.11-1.1-.11-1.65,0-.84.4-1.37,1.3-1.21ZM53.68,6.21c.2-.39.56-.57.99-.52.53.06.75.4.77.92.02.48-.25,1,.2,1.42,1.44.71,1.02,2.3,1.63,3.41.08,0,.15.02.23.03.03-.5.05-1,.09-1.51.17-1.98,1.61-3.33,3.58-3.42.54-.02,1.06.12,1.6-.24.88-.58,1.48-.06,1.69.78.39,1.57.67,3.16.97,4.74.09.47.03,1.11-.43,1.17-1.38.17-2.57,1.07-4.02.95-1.21-.1-2.05-.76-2.81-1.6-.2.02-.39.03-.59.05.08.51.45.95.3,1.51.07.96-.54,1.23-1.3,1.13-.98-.13-.96-1.02-1.09-1.75-.39-1.07-.84-2.12-1.15-3.21-.19-.67-.54-1.49.43-1.95-.1-.49-.64-.4-.9-.69-.34-.38-.41-.79-.18-1.23ZM50.8,7.16c.62-.37,1.3-.51,1.76.12.39.54.49,1.24-.24,1.71-.4.26-.76.55-.55,1.09.24.61.69.2,1.03.15.62-.09.94.26,1.2.71.21.37.04.83-.24.93-1.56.58-.68,1.55-.43,2.42.11.38.38.72.3,1.15.15.7-.26,1.05-.85,1.18-.62.13-1.08-.16-1.3-.75-.51-1.36-1-2.72-1.5-4.07-1.03-2.09-.75-3.69.82-4.62ZM50.11,31.21c1.23-.91,2.32-2.15,2.59-3.63.38-2.06,1.96-2.42,3.42-2.81,1.54-.41,3.17-.59,4.77-.59,2.09,0,3.92-.79,5.82-1.46,2.87-1.02,5.78-1.11,8.71-.17,3.72,1.2,7.46,1.62,11.21.18,1.03-.4,1.42.32,1.79.92.4.65,1.54,1.22,1.12,1.9-.46.73-1.47,0-2.23-.14-2.05-.37-3.9.18-5.62,1.24-.5.31-.82.56-1.44.13-2.21-1.56-4.65-1.89-7.17-.91-.91.35-1.73.34-2.61.05-5.55-1.83-10.66-.65-15.41,2.43-1.97,1.28-3.52,3.08-4.87,4.99-1.22-.77-1.12-1.36-.08-2.13ZM80.01,53.42c-.06,3.22-3.65,4.93-6.49,3.2-.74-.45-1.24-.48-2.01-.13-8.9,3.97-18.7-1.25-20.58-11.09-.2-1.07-.02-2.21,0-3.31.36-5.02,2.78-8.84,7-11.43,4.29-2.64,8.83-2.59,13.39-.66.63.27,1.11.34,1.63-.16,1.28-1.26,2.9-1.04,4.33-.61,1.88.57,2.67,2.15,2.74,4.09.02,6.7.13,13.41,0,20.11ZM25.63,50.56c.61-3.08,3.11-4.56,6.04-3.53,1.08.38,2.1.98,3.21,1.27,3.31.86,5.8-.76,6.41-4.06-.12-2.46-1.72-3.61-3.8-4.35-1.99-.71-4.05-1.28-5.83-2.47-3.85-2.56-5.53-6.25-5.58-10.78.38-3.96,2.08-7.22,5.42-9.43,4.72-3.12,9.68-3.49,14.73-.82,1.75.93,2.6,2.46,2.47,4.48-.38,3.21-2.97,4.76-6.28,3.75-.86-.26-1.67-.69-2.6-.71-2.1-.03-3.69.76-4.56,2.76-.18,1.55.56,2.58,1.85,3.32,1.71,1,3.68,1.33,5.45,2.16,4.48,2.1,7.07,5.62,7.7,10.55.93,5.77-2.78,11.82-8.52,13.96-4.94,1.84-9.6,1.02-14.06-1.51-1.73-.99-2.41-2.67-2.05-4.58ZM45.25,85.45c-4.44,3.18-9.39,3.64-14.34,1.34-5.14-2.38-8.07-6.53-8.52-12.25-.13-1.63-.31-3.32.46-4.89,1.43-5.81,6.49-10.04,12.84-10.74,5.53-.61,11.6,2.62,14.04,7.65.57,1.17,1.25,2.37,1.4,3.73,1.2,6.28-.68,11.45-5.88,15.16ZM65.94,67.91c-3.54.51-4.36,1.46-4.37,5.02,0,3.33.02,6.66-.01,9.98-.03,2.91-1.83,4.78-4.51,4.76-2.62-.02-4.39-1.86-4.4-4.71-.03-6.45-.02-12.91-.02-19.36,0-.3.07-.59.11-.89.57-3.04,3.48-4.51,6.17-3.07.64.34,1.09.42,1.78.12,1.7-.72,3.52-.89,5.35-.77,2.15.13,3.53,1.5,3.9,3.72.25,2.87-1.25,4.81-4,5.2ZM99.04,85.23c-.14,10.45-10.86,17.34-20.39,13.18-2.3-1-3.23-2.97-2.55-5.39.86-2.46,3.11-3.63,5.46-2.83,3.97,1.34,5.54.9,8.12-2.29-.02-1.22-.77-.43-1.12-.34-4.05,1.13-7.88.6-11.52-1.46-5.77-3.26-8.61-10.44-6.63-16.75,2.44-8.39,11.71-12.78,19.7-9.3.63.27,1.06.45,1.74-.08,2.73-2.14,6.16-.91,7.06,2.46.05.34.15.69.15,1.03,0,7.26.07,14.52-.03,21.77ZM97.92,52.8c-.06-3.94,0-7.88-.04-11.82-.02-1.68-1.16-3.04-2.72-3.39-1.51-.34-3.18.48-3.92,1.93-.31.61-.35,1.25-.35,1.91,0,3.64.01,7.27,0,10.91-.01,2.99-1.83,4.99-4.5,5-2.65.01-4.51-2.01-4.51-4.99,0-6.26.04-12.52.06-18.77-.11-3.82,3-5.94,6.33-4.24.68.35,1.11.13,1.67-.08,7.72-3.03,16.51,2.53,16.93,10.72.02,4.44.13,8.88.03,13.32-.05,2.42-2.18,4.13-4.62,4.04-2.46-.09-4.33-1.95-4.37-4.52ZM124.15,76.7c-4.72.05-9.44.02-14.16.05-.4,0-1.07-.38-1.18.47.47,0,.67.4.95.67,2.75,2.65,6.29,3.21,9.71,1.49,2.63-1.32,4.33-.84,5.79,1.63.81,2.03.18,3.94-1.66,5.03-7.32,4.3-17.27,1.88-21.54-5.44-2.03-3.48-2.38-7.31-1.16-11.22,1.27-5.2,6.07-9.51,11.46-10.3,6.21-.91,12.02,1.75,14.99,6.86.79,1.36,1.42,2.77,1.66,4.34,1.05,3.96-.74,6.37-4.86,6.42ZM134.11,59.26c-.17.55-.44,1.07-1.13,1.01-.64-.06-.78-.54-.77-1.1,0-.24.07-.5-.21-.68-.59.23-.4.86-.61,1.28-.62,1.25-2.1,1.75-3.34,1.09-1.23-.66-1.91-2.6-1.24-3.64.32-.5.78-.82,1.41-.63.62.19.88.64.78,1.28-.06.38-.31.78.25,1.1.5-.37.38-.89.55-1.3.48-1.18,1.56-1.79,2.61-1.44,1.26.41,2.09,1.85,1.72,3.02Z"/>
  <path class="cls-1" d="M84.33,67.98c-2.93.05-5.37,2.51-5.38,5.43-.02,3.05,2.38,5.47,5.44,5.48,3.05.02,5.45-2.4,5.44-5.46-.01-3.01-2.52-5.5-5.5-5.45Z"/>
  <path class="cls-1" d="M36.89,67.91c-3.3.02-5.74,2.79-5.47,6.21.04.44.03.89.04,1.34,2.61,4.78,7.84,4.36,9.98,1.24.34-.49.58-1.05.86-1.58.03-.35.07-.7.1-1.05.25-3.44-2.2-6.18-5.51-6.16Z"/>
  <path class="cls-1" d="M114.15,66.08c-2.57.27-4.77,2.11-5.03,4.2,3.81-.02,7.62-.04,11.44-.06-.96-2.81-3.48-4.44-6.4-4.13Z"/>
  <path class="cls-1" d="M62.64,38.38c-2.09,1.27-2.78,3.21-2.7,5.54.53,2.34,1.8,4.02,4.24,4.59,2.08.49,3.88-.07,5.37-1.59.84-.85,1.14-1.97,1.49-3.06.31-5.18-4.83-7.65-8.4-5.49Z"/>
  <path class="cls-1" d="M81.2,10.91c.84-.06,1.2-.6,1.24-1.41-.11-.79-.54-1.32-1.35-1.32-.87,0-1.41.57-1.38,1.43.03.87.59,1.36,1.48,1.3Z"/>
  <path class="cls-1" d="M129.08,53.71c.86.06,1.32-.57,1.39-1.27.09-.84-.49-1.35-1.32-1.53-.86.09-1.41.58-1.47,1.41-.07.92.58,1.33,1.4,1.39Z"/>
  <path class="cls-1" d="M115.82,29.05c.7-.11,1.36-.45,1.37-1.26.01-.84-.4-1.57-1.41-1.56-.82,0-1.32.5-1.37,1.3-.06.9.48,1.36,1.41,1.52Z"/>
  <path class="cls-1" d="M61.21,11.6c.88.05,1.37-.45,1.5-1.31-.07-.9-.57-1.43-1.43-1.41-.78.01-1.31.49-1.32,1.33-.01.82.43,1.34,1.25,1.39Z"/>
  <path class="cls-1" d="M92.43,11.32c.9.31,1.69.58,2.61.9-.68-1.69-1.21-1.87-2.61-.9Z"/>
  <path class="cls-1" d="M125.87,41.13c.66-.58.57-1.19.27-1.8-.21-.43-.68-.85-1.06-.65-.52.27-.12.74.11,1.12.25.42.45.87.68,1.33Z"/>
</svg>